<?xml version="1.0" encoding="utf-8"?>
<?xml-stylesheet type="text/xsl" href="rss1.xsl"?>
<rss version="2.0" xmlns:atom="http://www.w3.org/2005/Atom" xmlns:content="http://purl.org/rss/1.0/modules/content/" xmlns:dc="http://purl.org/dc/elements/1.1/" xmlns:media="http://search.yahoo.com/mrss/">
<channel>
 <title>Getty</title>
 <link>http://www.gettyimg.com/</link>
 <atom:link href="http://www.gettyimg.com/" rel="self" type="application/rss+xml" />

 
                <item>
                <title><![CDATA[【Requests】[REQ CAP] - Kim Petras Corona Capital]]></title>
                <link><![CDATA[https://sharemania.us/threads/kim-petras-corona-capital.232449/]]></link>
                <description><![CDATA[<article>
<blockquote class="messageText SelectQuoteContainer ugc baseHtml">
Can anyone grab this if it’s available? The show is tonight 11/18
<div class="messageTextEndMarker">&nbsp;</div>
</blockquote>
</article>]]></description>
                <author><![CDATA[Potato1987]]></author>
                </item>

                
                <item>
                <title><![CDATA[【Cinema Center】MOVIE - Urban.Legends.The.Final.Cut.2000.720p.TUBI.WEB-DL.AAC2.0.x264-Samuel]]></title>
                <link><![CDATA[https://sharemania.us/threads/urban-legends-the-final-cut-2000-720p-tubi-web-dl-aac2-0-x264-samuel.232448/]]></link>
                <description><![CDATA[<article>
<blockquote class="messageText SelectQuoteContainer ugc baseHtml">
<div style="text-align: center"><b><span style="font-size: 26px">Urban Legends: The Final Cut</span></b><br>
<img src="https://i.imgur.com/yeN9xYK.jpg" class="bbCodeImage LbImage" alt="[​IMG]" data-url="https://i.imgur.com/yeN9xYK.jpg" style=""><br>
<a href="https://i.imgur.com/udwOZh8.jpg" target="_blank" class="externalLink" rel="nofollow"><b>Alternate Artwork 1</b></a> | <a href="https://i.imgur.com/0CcHSRb.jpg" target="_blank" class="externalLink" rel="nofollow"><b>Alternate Artwork 2</b></a> | <a href="https://i.imgur.com/zxHvQIF.jpg" target="_blank" class="externalLink" rel="nofollow"><b>Alternate Artwork 3</b></a> | <a href="https://i.imgur.com/8xnL8KW.jpg" target="_blank" class="externalLink" rel="nofollow"><b>Poster 1</b></a> | <a href="https://i.imgur.com/ZvDK6kx.jpg" target="_blank" class="externalLink" rel="nofollow"><b>Poster 2</b></a><br>
<br>
2000 • 1 hr 38 min • <img src="https://i.imgur.com/stiVlGw.png" class="bbCodeImage LbImage" alt="[​IMG]" data-url="https://i.imgur.com/stiVlGw.png" style=""> • R<br>
Horror<br>
<br>
<div class="bbCodeBlock bbCodeQuote">
<aside>
<blockquote class="quoteContainer"><div class="quote"><b><span style="font-size: 15px"><span style="font-family: 'Arial'">Description</span></span></b><br>
An ambitious film student’s thesis project becomes a terrifying effort of unknown evil as his cast and crew start dying off, one by one.</div><div class="quoteExpand">Click to expand...</div></blockquote>
</aside>
</div>
<div class="bbCodeBlock bbCodeQuote">
<aside>
<blockquote class="quoteContainer"><div class="quote"><b><span style="font-size: 15px"><span style="font-family: 'Arial'">More Information</span></span><br>
Starring:</b> Jennifer Morrison, Eva Mendes, Anthony Anderson, Loretta Devine, Joey Lawrence<br>
<b>Directed by:</b> John Ottman<br>
<br>
2000 • R • AAC 2.0 • HD</div><div class="quoteExpand">Click to expand...</div></blockquote>
</aside>
</div>
<div class="bbCodeBlock bbCodeQuote">
<aside>
<blockquote class="quoteContainer"><div class="quote"><b><b><span style="font-size: 15px">Source</span></b></b><br>
<img src="https://i.imgur.com/JpKyknV.png" class="bbCodeImage LbImage" alt="[​IMG]" data-url="https://i.imgur.com/JpKyknV.png" style=""></div><div class="quoteExpand">Click to expand...</div></blockquote>
</aside>
</div>
<div class="bbCodeBlock bbCodeQuote">
<aside>
<blockquote class="quoteContainer"><div class="quote"><b><b><span style="font-size: 15px">Release Name</span></b></b><br>
Urban.Legends.The.Final.Cut.2000.720p.TUBI.WEB-DL.AAC2.0.x264-Samuel</div><div class="quoteExpand">Click to expand...</div></blockquote>
</aside>
</div>
<div class="ToggleTriggerAnchor bbCodeSpoilerContainer">
<button type="button" class="button bbCodeSpoilerButton ToggleTrigger Tooltip JsOnly" data-target="> .SpoilerTarget"><span>Spoiler: <span class="SpoilerTitle">Media Information</span></span></button>
<div class="SpoilerTarget bbCodeSpoilerText">General<br>
Complete name : Urban.Legends.The.Final.Cut.2000.720p.TUBI.WEB-DL.AAC2.0.x264-Samuel.mkv<br>
Format : Matroska<br>
Format version : Version 4<br>
File size : 1.76 GiB<br>
Duration : 1 h 38 min<br>
Overall bit rate : 2 562 kb/s<br>
Frame rate : 23.976 FPS<br>
Encoded date : 2023-10-01 08:17:14 UTC<br>
Writing application : mkvmerge v79.0 ('Funeral Pyres') 64-bit<br>
Writing library : libebml v1.4.4 + libmatroska v1.7.1<br>
<br>
Video<br>
ID : 1<br>
Format : AVC<br>
Format/Info : Advanced Video Codec<br>
Format profile : High@L4<br>
Format settings : CABAC / 4 Ref Frames<br>
Format settings, CABAC : Yes<br>
Format settings, Reference frames : 4 frames<br>
Codec ID : V_MPEG4/ISO/AVC<br>
Duration : 1 h 38 min<br>
Bit rate : 2 434 kb/s<br>
Width : 1 280 pixels<br>
Height : 720 pixels<br>
Display aspect ratio : 16:9<br>
Frame rate mode : Constant<br>
Frame rate : 23.976 (24000/1001) FPS<br>
Color space : YUV<br>
Chroma subsampling : 4:2:0<br>
Bit depth : 8 bits<br>
Scan type : Progressive<br>
Bits/(Pixel*Frame) : 0.110<br>
Stream size : 1.67 GiB (95%)<br>
Writing library : x264 core 148 r2643 5c65704<br>
Encoding settings : cabac=1 / ref=4 / deblock=1:0:0 / analyse=0x3:0x113 / me=umh / subme=8 / psy=1 / psy_rd=1.00:0.00 / mixed_ref=1 / me_range=16 / chroma_me=1 / trellis=0 / 8x8dct=1 / cqm=0 / deadzone=21,11 / fast_pskip=1 / chroma_qp_offset=-2 / threads=1 / lookahead_threads=1 / sliced_threads=0 / nr=0 / decimate=1 / interlaced=0 / bluray_compat=0 / constrained_intra=0 / bframes=4 / b_pyramid=2 / b_adapt=2 / b_bias=0 / direct=3 / weightb=1 / open_gop=0 / weightp=2 / keyint=96 / keyint_min=48 / scenecut=0 / intra_refresh=0 / rc_lookahead=40 / rc=crf / mbtree=1 / crf=1.0 / qcomp=0.60 / qpmin=0 / qpmax=69 / qpstep=4 / vbv_maxrate=2400 / vbv_bufsize=1920 / crf_max=0.0 / nal_hrd=none / filler=0 / ip_ratio=1.41 / aq=1:1.00<br>
Default : Yes<br>
Forced : No<br>
<br>
Audio<br>
ID : 2<br>
Format : AAC LC<br>
Format/Info : Advanced Audio Codec Low Complexity<br>
Codec ID : A_AAC-2<br>
Duration : 1 h 38 min<br>
Bit rate : 126 kb/s<br>
Channel(s) : 2 channels<br>
Channel layout : L R<br>
Sampling rate : 44.1 kHz<br>
Frame rate : 43.066 FPS (1024 SPF)<br>
Compression mode : Lossy<br>
Stream size : 88.4 MiB (5%)<br>
Default : Yes<br>
Forced : No<br>
<br>
Text<br>
ID : 3<br>
Format : UTF-8<br>
Codec ID : S_TEXT/UTF8<br>
Codec ID/Info : UTF-8 Plain Text<br>
Duration : 1 h 33 min<br>
Bit rate : 50 b/s<br>
Frame rate : 0.187 FPS<br>
Count of elements : 1049<br>
Stream size : 34.6 KiB (0%)<br>
Language : English<br>
Default : No<br>
Forced : No</div>
</div><br>
<b>Screenshots</b><br>
<img src="https://i.imgur.com/OgDMKD3.png" class="bbCodeImage LbImage" alt="[​IMG]" data-url="https://i.imgur.com/OgDMKD3.png" style=""><br>
<br>
<b>Download</b><br>
<div class="bbCodeBlock bbCodeVfcHH HiddenContent">
<div class="attribution type">Hidden Content:</div>
<blockquote>You must reply before you can see the hidden data contained here.</blockquote>
</div></div>
<div class="messageTextEndMarker">&nbsp;</div>
</blockquote>
</article>]]></description>
                <author><![CDATA[Samuel]]></author>
                </item>

                </channel></rss>